<svg width="600" height="600" viewBox="0 0 600 600" fill="none" xmlns="http://www.w3.org/2000/svg">
<path fill-rule="evenodd" clip-rule="evenodd" d="M299.033 558.185C440.963 558.185 556.021 443.128 556.021 301.197C556.021 159.266 440.963 44.209 299.033 44.209C157.102 44.209 42.0449 159.266 42.0449 301.197C42.0449 443.128 157.102 558.185 299.033 558.185ZM298.033 495.067C399.287 495.067 498.52 418.081 498.52 301.197C498.52 184.313 405.445 102.621 299.033 102.621C197.773 102.621 98.5607 184.313 98.5607 301.197C98.5607 418.081 196.779 495.067 298.033 495.067Z" fill="#F8DB46"/>
<path d="M501 300C501 411.562 410.562 502 299 502C187.438 502 97 411.562 97 300C97 188.438 187.438 98 299 98C410.562 98 501 188.438 501 300Z" fill="white"/>
<path fill-rule="evenodd" clip-rule="evenodd" d="M299 491.991C405.034 491.991 490.991 406.034 490.991 300C490.991 193.966 405.034 108.009 299 108.009C192.966 108.009 107.009 193.966 107.009 300C107.009 406.034 192.966 491.991 299 491.991ZM299 502C410.562 502 501 411.562 501 300C501 188.438 410.562 98 299 98C187.438 98 97 188.438 97 300C97 411.562 187.438 502 299 502Z" fill="#05060F"/>
<path fill-rule="evenodd" clip-rule="evenodd" d="M300 553.991C440.275 553.991 553.991 440.275 553.991 300C553.991 159.725 440.275 46.0089 300 46.0089C159.725 46.0089 46.0089 159.725 46.0089 300C46.0089 440.275 159.725 553.991 300 553.991ZM300 564C445.803 564 564 445.803 564 300C564 154.197 445.803 36 300 36C154.197 36 36 154.197 36 300C36 445.803 154.197 564 300 564Z" fill="#05060F"/>
<path fill-rule="evenodd" clip-rule="evenodd" d="M298.523 102.765C301.287 102.765 303.528 105.005 303.528 107.769V147.769C303.528 150.533 301.287 152.773 298.523 152.773C295.76 152.773 293.519 150.533 293.519 147.769V107.769C293.519 105.005 295.76 102.765 298.523 102.765Z" fill="#05060F"/>
<path fill-rule="evenodd" clip-rule="evenodd" d="M298.523 446.556C301.287 446.556 303.528 448.796 303.528 451.56V491.56C303.528 494.324 301.287 496.565 298.523 496.565C295.76 496.565 293.519 494.324 293.519 491.56V451.56C293.519 448.796 295.76 446.556 298.523 446.556Z" fill="#05060F"/>
<path fill-rule="evenodd" clip-rule="evenodd" d="M495.764 299.532C495.764 302.296 493.524 304.536 490.76 304.536H450.76C447.996 304.536 445.755 302.296 445.755 299.532C445.755 296.768 447.996 294.527 450.76 294.527H490.76C493.524 294.527 495.764 296.768 495.764 299.532Z" fill="#05060F"/>
<path fill-rule="evenodd" clip-rule="evenodd" d="M151.426 299.532C151.426 302.296 149.185 304.536 146.421 304.536L106.421 304.536C103.657 304.536 101.417 302.296 101.417 299.532C101.417 296.768 103.657 294.527 106.421 294.527L146.421 294.527C149.185 294.527 151.426 296.768 151.426 299.532Z" fill="#05060F"/>
<path d="M394.35 197.16C399.374 194.928 404.507 200.061 402.276 205.086L342.048 340.689C341.477 341.973 339.796 342.285 338.803 341.292L258.144 260.633C257.15 259.639 257.463 257.958 258.747 257.388L394.35 197.16Z" fill="#4B9BFA"/>
<path fill-rule="evenodd" clip-rule="evenodd" d="M394.668 190.009C403.876 185.92 413.283 195.326 409.193 204.534L348.965 340.138C346.97 344.629 341.09 345.721 337.615 342.246L256.956 261.587C253.481 258.112 254.573 252.232 259.065 250.237L394.668 190.009ZM399.326 199.059C399.196 199.031 399.009 199.023 398.727 199.148L267.115 257.604L341.598 332.088L400.054 200.475C400.179 200.193 400.171 200.007 400.143 199.876C400.109 199.715 400.015 199.525 399.846 199.356C399.677 199.187 399.487 199.094 399.326 199.059Z" fill="#05060F"/>
<path d="M205.587 402.726C200.562 404.958 195.429 399.825 197.661 394.8L257.889 259.197C258.459 257.913 260.14 257.6 261.134 258.594L341.793 339.253C342.786 340.247 342.474 341.928 341.19 342.498L205.587 402.726Z" fill="#F95959"/>
<path fill-rule="evenodd" clip-rule="evenodd" d="M207.616 407.295C198.408 411.385 189.002 401.978 193.091 392.77L253.319 257.167C255.314 252.676 261.194 251.583 264.669 255.058L345.328 335.717C348.803 339.192 347.711 345.073 343.22 347.067L207.616 407.295ZM202.958 398.245C203.089 398.273 203.275 398.282 203.557 398.156L335.17 339.701L260.686 265.217L202.23 396.829C202.105 397.111 202.113 397.298 202.141 397.429C202.176 397.59 202.269 397.78 202.438 397.948C202.607 398.117 202.797 398.211 202.958 398.245Z" fill="#05060F"/>
</svg>
