<svg width="600" height="600" viewBox="0 0 600 600" fill="none" xmlns="http://www.w3.org/2000/svg">
<path d="M352.574 134.235C272.931 152.923 250.082 212.242 251.881 277.684L277.953 449.821L273.457 526.898L430.792 532.277V497.36C430.792 485.747 440.65 476.575 452.233 477.412L496.623 480.62C515.029 481.951 530.743 467.478 530.928 449.024L531.386 403.252C531.441 397.769 535.898 393.28 541.367 392.871C544.962 392.603 548.905 392.247 552.731 391.873C562.736 390.896 569.126 380.92 565.864 371.411C561.479 358.628 555.214 341.034 548.66 324.818C546.853 320.35 546.022 315.54 546.192 310.723C547.894 262.529 540.577 227.167 509.909 188.023C487.432 159.335 428.993 116.305 352.574 134.235Z" fill="white"/>
<path fill-rule="evenodd" clip-rule="evenodd" d="M505.973 191.107C484.262 163.395 427.637 121.759 353.717 139.103C315.042 148.178 290.623 166.957 275.957 191.028C261.242 215.179 256.028 245.184 256.871 277.241L282.975 449.589L278.748 522.076L425.792 527.103V497.361C425.792 482.844 438.115 471.379 452.594 472.426L496.984 475.634C512.514 476.756 525.773 464.545 525.929 448.974L526.387 403.202C526.47 394.964 533.096 388.476 540.995 387.885C544.539 387.621 548.442 387.269 552.245 386.897C559.025 386.235 563.354 379.501 561.135 373.034C556.762 360.287 550.531 342.789 544.024 326.692C541.951 321.563 541.001 316.054 541.195 310.547C542.868 263.188 535.728 229.085 505.973 191.107ZM351.433 129.368C430.35 110.851 490.603 155.275 513.845 184.939C545.427 225.25 552.921 261.87 551.189 310.9C551.043 315.026 551.757 319.137 553.296 322.945C559.899 339.28 566.196 356.969 570.594 369.789C574.9 382.34 566.448 395.557 553.218 396.85C549.37 397.226 545.386 397.585 541.74 397.858C538.702 398.085 536.414 400.574 536.387 403.303L535.928 449.075C535.714 470.412 517.545 487.146 496.263 485.608L451.873 482.4C443.186 481.772 435.792 488.651 435.792 497.361V537.451L268.168 531.721L272.931 450.052L246.891 278.129L246.883 277.821C245.969 244.551 251.293 212.289 267.417 185.825C283.637 159.205 310.464 138.98 351.433 129.368Z" fill="#05060F"/>
<path d="M276.182 502.557L436.925 517.233C447.249 518.176 455.152 526.834 455.152 537.201C455.152 548.275 446.175 557.252 435.101 557.252H274C260.745 557.252 250 546.507 250 533.252V526.458C250 512.341 262.124 501.273 276.182 502.557Z" fill="#3F96FC"/>
<path fill-rule="evenodd" clip-rule="evenodd" d="M245 526.457C245 509.4 259.65 496.027 276.637 497.578L437.379 512.254C450.278 513.432 460.152 524.249 460.152 537.201C460.152 551.037 448.937 562.252 435.101 562.252H274C257.984 562.252 245 549.268 245 533.252V526.457ZM275.728 507.536C264.598 506.52 255 515.282 255 526.457V533.252C255 543.746 263.507 552.252 274 552.252H435.101C443.414 552.252 450.152 545.514 450.152 537.201C450.152 529.419 444.22 522.92 436.47 522.213L275.728 507.536Z" fill="#05060F"/>
<path d="M247.426 46.2353C327.069 64.9226 349.918 124.242 348.119 189.684L322.047 361.821L326.543 438.898L169.208 444.277V409.36C169.208 397.747 159.35 388.575 147.767 389.412L103.377 392.62C84.9706 393.951 69.2571 379.478 69.0722 361.024L68.6135 315.252C68.5586 309.769 64.1015 305.28 58.633 304.871C55.0378 304.603 51.0946 304.247 47.269 303.873C37.2639 302.896 30.8735 292.92 34.1357 283.411C38.5213 270.628 44.7858 253.034 51.3403 236.818C53.1466 232.35 53.9784 227.54 53.8083 222.723C52.1056 174.529 59.4228 139.167 90.0915 100.023C112.568 71.3347 171.007 28.3045 247.426 46.2353Z" fill="#3F96FC"/>
<path fill-rule="evenodd" clip-rule="evenodd" d="M94.0269 103.107C115.738 75.3952 172.363 33.7588 246.283 51.1033C284.958 60.1779 309.377 78.9571 324.043 103.028C338.758 127.179 343.972 157.184 343.129 189.241L317.025 361.589L321.252 434.076L174.208 439.103V409.361C174.208 394.844 161.885 383.379 147.406 384.426L103.016 387.634C87.4858 388.756 74.2275 376.545 74.0715 360.974L73.6128 315.202C73.5303 306.964 66.9042 300.476 59.0052 299.885C55.4611 299.621 51.5584 299.269 47.7548 298.897C40.9748 298.235 36.6462 291.501 38.8647 285.034C43.2377 272.287 49.4692 254.789 55.9755 238.692C58.0488 233.563 58.9992 228.054 58.8047 222.547C57.1315 175.188 64.2717 141.085 94.0269 103.107ZM248.567 41.3677C169.65 22.8507 109.397 67.2746 86.1551 96.9393C54.573 137.25 47.0787 173.87 48.8109 222.9C48.9567 227.026 48.2435 231.137 46.7042 234.945C40.1014 251.28 33.8039 268.969 29.4058 281.789C25.1 294.34 33.5522 307.557 46.7823 308.85C50.6299 309.226 54.6137 309.585 58.2599 309.858C61.2979 310.085 63.586 312.574 63.6133 315.303L64.072 361.075C64.2858 382.412 82.4546 399.146 103.737 397.608L148.127 394.4C156.814 393.772 164.208 400.651 164.208 409.361V449.451L331.832 443.721L327.069 362.052L353.109 190.129L353.117 189.821C354.031 156.551 348.707 124.289 332.583 97.8252C316.363 71.2046 289.536 50.9805 248.567 41.3677Z" fill="#05060F"/>
<path d="M323.818 414.557L163.075 429.233C152.751 430.176 144.848 438.834 144.848 449.201C144.848 460.275 153.825 469.252 164.899 469.252H326C339.255 469.252 350 458.507 350 445.252V438.458C350 424.341 337.876 413.273 323.818 414.557Z" fill="white"/>
<path fill-rule="evenodd" clip-rule="evenodd" d="M355 438.457C355 421.4 340.35 408.027 323.363 409.578L162.621 424.254C149.722 425.432 139.848 436.249 139.848 449.201C139.848 463.037 151.063 474.252 164.899 474.252H326C342.016 474.252 355 461.268 355 445.252V438.457ZM324.272 419.536C335.402 418.52 345 427.282 345 438.457V445.252C345 455.746 336.493 464.252 326 464.252H164.899C156.586 464.252 149.848 457.514 149.848 449.201C149.848 441.419 155.78 434.92 163.53 434.213L324.272 419.536Z" fill="#05060F"/>
<path fill-rule="evenodd" clip-rule="evenodd" d="M299.199 141.061C240.025 141.09 179.632 188.082 179.597 257.505C179.576 300.028 206.17 330.663 226.325 347.905C238.745 358.531 248.223 378.149 248.218 388.329C248.218 388.329 248.235 402.578 248.244 406.723C248.252 410.868 251.611 414.22 255.752 414.218C259.894 414.216 339.548 414.176 343.69 414.174C347.831 414.172 351.193 410.816 351.206 406.672C351.219 402.528 351.245 388.277 351.245 388.277C351.25 378.098 361.618 358.443 374.052 347.667C394.008 330.372 419.971 299.852 419.993 257.385C420.029 184.525 357.725 141.031 299.199 141.061Z" fill="#F8DB46"/>
<path fill-rule="evenodd" clip-rule="evenodd" d="M238.218 388.5C238.218 383.041 235.534 377.644 233.067 372.922C229.562 366.214 224.813 359.778 219.82 355.507C198.863 337.577 169.574 304.411 169.597 257.51C169.635 181.677 235.439 131.093 299.205 131.061C361.934 131.029 430.033 177.764 429.993 257.38C429.97 304.143 401.407 337.187 380.597 355.221C375.482 359.654 370.473 366.243 366.747 373.011C362.843 380.103 361.246 385.748 361.245 388.272L351.245 388.277C351.25 378.098 361.618 358.443 374.052 347.667C394.009 330.372 419.972 299.852 419.993 257.385C420.029 184.525 357.726 141.031 299.2 141.061C240.026 141.09 179.632 188.082 179.597 257.505C179.576 300.028 206.17 330.663 226.325 347.905C238.746 358.53 248.249 378.32 248.244 388.5L238.218 388.5ZM248.244 388.5L238.218 388.5C238.226 394.634 238.231 400.619 238.244 406.754C238.264 416.404 246.086 424.223 255.747 424.218L343.685 424.174C353.346 424.169 361.176 416.343 361.206 406.693C361.225 400.561 361.234 394.405 361.245 388.272L351.245 388.277C351.245 388.277 351.219 402.528 351.206 406.672C351.193 410.816 347.831 414.172 343.69 414.174L255.752 414.218C251.611 414.22 248.252 410.868 248.244 406.723C248.235 402.578 248.244 388.5 248.244 388.5Z" fill="#05060F"/>
<path d="M253.004 425.712C250.526 425.713 248.516 427.981 248.51 430.78L248.492 439.129C248.448 457.863 261.864 473.073 278.443 473.064L321 473.043C337.58 473.035 351.011 457.811 350.983 439.077L350.974 430.728C350.97 427.929 348.962 425.664 346.485 425.665L253.004 425.712Z" fill="#F95959"/>
<path fill-rule="evenodd" clip-rule="evenodd" d="M238.51 430.769C238.525 423.634 243.905 415.717 253.009 415.712L346.49 415.666C355.594 415.661 360.966 423.571 360.974 430.707L360.984 439.053C361.017 462.124 344.228 483.032 320.995 483.044L278.439 483.065C255.208 483.076 238.439 462.188 238.493 439.119C238.493 439.118 238.493 439.117 238.493 439.116C238.493 439.116 238.493 439.116 238.493 439.116L238.51 430.769ZM248.493 439.13C248.448 457.863 261.864 473.073 278.444 473.065L321 473.044C337.58 473.035 351.011 457.811 350.984 439.077L350.974 430.729C350.971 427.93 348.962 425.664 346.485 425.666L253.004 425.712C250.527 425.714 248.516 427.981 248.51 430.78L248.493 439.13Z" fill="#05060F"/>
<path fill-rule="evenodd" clip-rule="evenodd" d="M309.026 319.214L288.877 319.223L288.832 414.012L308.981 414.003L309.026 319.214ZM277.206 307.574L277.144 425.677L320.652 425.652L320.714 307.549L277.206 307.574Z" fill="#05060F"/>
<path fill-rule="evenodd" clip-rule="evenodd" d="M310.013 294.056C310.02 281.411 320.275 271.156 332.92 271.149C345.564 271.143 355.809 281.388 355.803 294.033L355.803 294.845C355.796 307.938 345.177 318.557 332.084 318.564L310.001 318.575L310.013 294.056ZM321.693 294.05L321.686 306.89L332.09 306.884C338.732 306.881 344.12 301.493 344.123 294.851L344.123 294.039C344.127 287.845 339.108 282.826 332.914 282.829C326.72 282.832 321.696 287.856 321.693 294.05Z" fill="#05060F"/>
<path fill-rule="evenodd" clip-rule="evenodd" d="M289.796 294.056C289.79 281.411 279.534 271.156 266.89 271.149C254.245 271.143 244 281.388 244.007 294.033L244.007 294.845C244.013 307.938 254.633 318.557 267.726 318.564L289.809 318.575L289.796 294.056ZM278.117 294.05L278.123 306.89L267.72 306.884C261.077 306.881 255.69 301.493 255.687 294.851L255.686 294.039C255.683 287.845 260.702 282.826 266.896 282.829C273.09 282.832 278.114 287.856 278.117 294.05Z" fill="#05060F"/>
</svg>
