<svg width="601" height="600" viewBox="0 0 601 600" fill="none" xmlns="http://www.w3.org/2000/svg">
<path d="M54.4141 114C54.4141 89.6995 74.1135 70 98.4141 70H408.414V154H66.4141C59.7866 154 54.4141 148.627 54.4141 142V114Z" fill="#2986F2"/>
<path fill-rule="evenodd" clip-rule="evenodd" d="M49.4141 114C49.4141 86.938 71.3521 65 98.4141 65H413.414V159H66.4141C57.0252 159 49.4141 151.389 49.4141 142V114ZM98.4141 75C76.875 75 59.4141 92.4609 59.4141 114V142C59.4141 145.866 62.5481 149 66.4141 149H403.414V75H98.4141Z" fill="#05060F"/>
<path d="M98.4141 69.9995C101.594 69.9995 112.166 70.027 121.414 69.9995C183.655 69.8144 361.379 69.909 444.525 69.9664C468.811 69.9831 488.414 89.6759 488.414 113.962V530H184.414C156.8 530 134.414 507.614 134.414 480V154C134.414 154 139.414 69.9989 98.4141 69.9995Z" fill="#E0EDFE"/>
<path fill-rule="evenodd" clip-rule="evenodd" d="M444.522 74.9664C361.37 74.909 183.659 74.8144 121.429 74.9995C121.37 74.9997 121.312 74.9998 121.253 75C122.797 76.6398 124.205 78.4308 125.485 80.3337C131.34 89.0387 134.718 100.319 136.706 111.092C138.709 121.947 139.378 132.736 139.554 140.765C139.641 144.792 139.606 148.151 139.547 150.513C139.518 151.695 139.483 152.628 139.456 153.272C139.442 153.594 139.429 153.844 139.421 154.016C139.418 154.063 139.416 154.104 139.414 154.139V480C139.414 504.852 159.561 525 184.414 525H483.414V113.962C483.414 92.4247 466.036 74.9812 444.522 74.9664ZM129.423 153.702L129.425 153.661C129.427 153.627 129.43 153.573 129.434 153.501C129.441 153.355 129.452 153.133 129.465 152.84C129.49 152.254 129.523 151.382 129.55 150.267C129.605 148.035 129.64 144.832 129.556 140.984C129.387 133.263 128.744 123.051 126.872 112.907C124.985 102.68 121.926 92.9598 117.187 85.9149C112.572 79.0529 106.6 74.9994 98.4142 74.9995L98.4141 64.9995C99.2107 64.9995 100.462 65.0012 102.034 65.0033C106.781 65.0098 114.458 65.0202 121.399 64.9995C183.652 64.8144 361.387 64.909 444.528 64.9664C471.586 64.985 493.414 86.9271 493.414 113.962V535H184.414C154.038 535 129.414 510.375 129.414 480V153.851L129.423 153.702Z" fill="#05060F"/>
<path d="M237.023 455.056C236.892 450.227 240.699 446 245.53 446H538.414C542.832 446 546.414 449.582 546.414 454V486C546.414 510.301 526.715 530 502.414 530H179.414C233.546 530 237.615 476.769 237.023 455.056Z" fill="white"/>
<path fill-rule="evenodd" clip-rule="evenodd" d="M232.025 455.193C231.823 447.784 237.656 441 245.53 441H538.414C545.594 441 551.414 446.82 551.414 454V486C551.414 513.062 529.476 535 502.414 535H179.414V525C192.091 525 201.5 521.897 208.56 517.185C215.645 512.455 220.678 505.893 224.234 498.502C231.422 483.565 232.314 465.795 232.025 455.193ZM214.849 525H502.414C523.953 525 541.414 507.539 541.414 486V454C541.414 452.343 540.071 451 538.414 451H245.53C243.743 451 241.96 452.671 242.021 454.92C242.324 466.03 241.477 485.732 233.245 502.838C229.208 511.228 223.334 519.119 214.849 525Z" fill="#05060F"/>
<path d="M298.414 340C298.414 370.376 273.79 395 243.414 395C213.038 395 188.414 370.376 188.414 340C188.414 309.624 213.038 285 243.414 285C273.79 285 298.414 309.624 298.414 340Z" fill="white"/>
<path fill-rule="evenodd" clip-rule="evenodd" d="M243.414 290C215.8 290 193.414 312.386 193.414 340C193.414 367.614 215.8 390 243.414 390C271.028 390 293.414 367.614 293.414 340C293.414 312.386 271.028 290 243.414 290ZM183.414 340C183.414 306.863 210.277 280 243.414 280C276.551 280 303.414 306.863 303.414 340C303.414 373.137 276.551 400 243.414 400C210.277 400 183.414 373.137 183.414 340Z" fill="#05060F"/>
<path d="M232.786 326.134C232.786 330.218 229.475 333.529 225.391 333.529C221.307 333.529 217.996 330.218 217.996 326.134C217.996 322.05 221.307 318.739 225.391 318.739C229.475 318.739 232.786 322.05 232.786 326.134Z" fill="#05060F"/>
<path d="M268.833 326.134C268.833 330.218 265.522 333.529 261.438 333.529C257.354 333.529 254.043 330.218 254.043 326.134C254.043 322.05 257.354 318.739 261.438 318.739C265.522 318.739 268.833 322.05 268.833 326.134Z" fill="#05060F"/>
<path fill-rule="evenodd" clip-rule="evenodd" d="M219.521 365.746C220.722 366.179 222.046 365.557 222.48 364.357C226.216 354.009 234.656 348.853 243.083 348.783C251.501 348.713 260.182 353.72 264.373 364.415C264.839 365.603 266.18 366.189 267.368 365.724C268.556 365.258 269.142 363.917 268.676 362.729C263.811 350.311 253.443 344.075 243.045 344.161C232.657 344.247 222.516 350.647 218.133 362.787C217.699 363.988 218.321 365.312 219.521 365.746Z" fill="#05060F"/>
<path fill-rule="evenodd" clip-rule="evenodd" d="M218.842 367.627C221.082 368.435 223.552 367.275 224.361 365.036C227.817 355.464 235.521 350.846 243.1 350.783C250.661 350.72 258.613 355.196 262.511 365.145C263.38 367.361 265.881 368.454 268.097 367.586C270.314 366.717 271.407 364.216 270.539 361.999C265.381 348.836 254.283 342.068 243.028 342.161C231.792 342.254 220.915 349.192 216.252 362.108C215.443 364.347 216.603 366.818 218.842 367.627ZM220.599 363.678C220.54 363.839 220.362 363.923 220.201 363.864C220.039 363.806 219.955 363.628 220.014 363.466C224.117 352.102 233.522 346.24 243.062 346.161C252.602 346.082 262.241 351.786 266.814 363.458C266.877 363.618 266.798 363.799 266.638 363.861C266.478 363.924 266.298 363.845 266.235 363.685C261.752 352.245 252.341 346.706 243.067 346.783C233.791 346.86 224.615 352.554 220.599 363.678Z" fill="#05060F"/>
<path d="M298.414 190C298.414 220.376 273.79 245 243.414 245C213.038 245 188.414 220.376 188.414 190C188.414 159.624 213.038 135 243.414 135C273.79 135 298.414 159.624 298.414 190Z" fill="#F8DB46"/>
<path fill-rule="evenodd" clip-rule="evenodd" d="M243.414 140C215.8 140 193.414 162.386 193.414 190C193.414 217.614 215.8 240 243.414 240C271.028 240 293.414 217.614 293.414 190C293.414 162.386 271.028 140 243.414 140ZM183.414 190C183.414 156.863 210.277 130 243.414 130C276.551 130 303.414 156.863 303.414 190C303.414 223.137 276.551 250 243.414 250C210.277 250 183.414 223.137 183.414 190Z" fill="#05060F"/>
<path d="M232.713 175.815C232.713 179.938 229.371 183.281 225.247 183.281C221.124 183.281 217.781 179.938 217.781 175.815C217.781 171.691 221.124 168.349 225.247 168.349C229.371 168.349 232.713 171.691 232.713 175.815Z" fill="#05060F"/>
<path d="M269.047 175.815C269.047 179.938 265.705 183.281 261.581 183.281C257.458 183.281 254.115 179.938 254.115 175.815C254.115 171.691 257.458 168.349 261.581 168.349C265.705 168.349 269.047 171.691 269.047 175.815Z" fill="#05060F"/>
<path fill-rule="evenodd" clip-rule="evenodd" d="M218.983 197.534C220.183 197.099 221.508 197.718 221.943 198.918C225.77 209.473 234.422 214.744 243.073 214.815C251.713 214.887 260.613 209.768 264.905 198.86C265.373 197.672 266.714 197.088 267.902 197.556C269.089 198.023 269.673 199.365 269.206 200.552C264.233 213.189 253.643 219.525 243.035 219.437C232.436 219.349 222.078 212.847 217.598 200.494C217.163 199.294 217.783 197.969 218.983 197.534Z" fill="#05060F"/>
<path fill-rule="evenodd" clip-rule="evenodd" d="M218.302 195.654C220.54 194.842 223.012 195.999 223.824 198.237C227.369 208.013 235.282 212.751 243.09 212.816C250.879 212.88 259.047 208.288 263.045 198.128C263.916 195.913 266.419 194.823 268.635 195.695C270.85 196.567 271.939 199.07 271.068 201.285C265.801 214.67 254.479 221.532 243.019 221.437C231.576 221.343 220.48 214.308 215.718 201.176C214.907 198.938 216.063 196.466 218.302 195.654ZM220.063 199.601C220.005 199.439 219.827 199.356 219.665 199.414C219.504 199.473 219.42 199.651 219.479 199.813C223.676 211.388 233.296 217.357 243.052 217.438C252.808 217.518 262.667 211.709 267.345 199.82C267.408 199.661 267.33 199.48 267.17 199.417L267.902 197.556L267.17 199.417C267.01 199.354 266.83 199.433 266.767 199.593C262.18 211.249 252.549 216.894 243.057 216.816C233.563 216.737 224.173 210.934 220.063 199.601Z" fill="#05060F"/>
<path d="M337.414 159C337.414 150.163 344.578 143 353.414 143H415.414C424.251 143 431.414 150.163 431.414 159V221C431.414 229.837 424.251 237 415.414 237H353.414C344.578 237 337.414 229.837 337.414 221V159Z" fill="#2986F2"/>
<path fill-rule="evenodd" clip-rule="evenodd" d="M332.414 159C332.414 147.402 341.816 138 353.414 138H415.414C427.012 138 436.414 147.402 436.414 159V221C436.414 232.598 427.012 242 415.414 242H353.414C341.816 242 332.414 232.598 332.414 221V159ZM353.414 148C347.339 148 342.414 152.925 342.414 159V221C342.414 227.075 347.339 232 353.414 232H415.414C421.489 232 426.414 227.075 426.414 221V159C426.414 152.925 421.489 148 415.414 148H353.414Z" fill="#05060F"/>
<path fill-rule="evenodd" clip-rule="evenodd" d="M414.914 166.429C416.867 168.382 416.867 171.548 414.914 173.5L382.137 210.935C380.198 212.874 377.059 212.889 375.101 210.969L358.914 194.97C356.942 193.037 356.911 189.871 358.844 187.899C360.777 185.927 363.943 185.896 365.914 187.829L378.567 200.363L407.843 166.429C409.796 164.477 412.961 164.477 414.914 166.429Z" fill="white"/>
<path d="M337.414 309C337.414 300.163 344.578 293 353.414 293H415.414C424.251 293 431.414 300.163 431.414 309V371C431.414 379.837 424.251 387 415.414 387H353.414C344.578 387 337.414 379.837 337.414 371V309Z" fill="white"/>
<path fill-rule="evenodd" clip-rule="evenodd" d="M332.414 309C332.414 297.402 341.816 288 353.414 288H415.414C427.012 288 436.414 297.402 436.414 309V371C436.414 382.598 427.012 392 415.414 392H353.414C341.816 392 332.414 382.598 332.414 371V309ZM353.414 298C347.339 298 342.414 302.925 342.414 309V371C342.414 377.075 347.339 382 353.414 382H415.414C421.489 382 426.414 377.075 426.414 371V309C426.414 302.925 421.489 298 415.414 298H353.414Z" fill="#05060F"/>
<path d="M523.423 408.069C507.507 406.939 505.612 420.119 490.074 420.495C479.084 420.495 467.336 408.069 455.967 408.069C444.598 408.069 415.797 420.495 415.418 468.319C415.039 516.143 443.841 537.985 455.967 544.386C468.094 550.788 482.874 536.102 490.074 535.725C497.274 535.349 509.022 550.788 523.423 544.386C537.825 537.985 562.486 520.7 564.352 468.319C565.868 425.767 539.34 409.198 523.423 408.069Z" fill="#F95959"/>
<path fill-rule="evenodd" clip-rule="evenodd" d="M508.948 418.197C504.675 421.317 499.254 425.274 490.195 425.494L490.135 425.495H490.074C486.411 425.495 482.929 424.466 479.801 423.176C476.776 421.928 473.769 420.298 471.026 418.811L470.78 418.678C464.73 415.399 460.134 413.068 455.967 413.068C447.598 413.068 420.777 423.02 420.418 468.359C420.058 513.747 447.257 534.134 458.301 539.964C462.042 541.939 466.701 540.957 472.713 538.085C474.568 537.2 476.205 536.317 477.87 535.418C478.924 534.85 479.99 534.275 481.127 533.69C483.595 532.422 486.785 530.89 489.813 530.732C493.198 530.555 496.429 532.178 498.719 533.445C499.815 534.052 500.96 534.738 502.06 535.398C502.228 535.498 502.395 535.598 502.56 535.697C503.847 536.467 505.111 537.214 506.405 537.905C511.638 540.702 516.359 542.054 521.392 539.817C528.004 536.878 536.951 531.46 544.497 520.72C552.043 509.981 558.45 493.546 559.355 468.141C560.779 428.172 536.194 413.987 523.069 413.056C516.935 412.62 513.709 414.737 509.546 417.762C509.349 417.905 509.15 418.05 508.948 418.197ZM503.668 409.672C508.315 406.295 513.995 402.387 523.777 403.081C542.486 404.409 570.957 423.362 569.349 468.497C568.388 495.473 561.531 513.871 552.68 526.469C543.828 539.067 533.244 545.492 525.454 548.955C516.086 553.119 507.733 549.953 501.692 546.725C500.167 545.91 498.725 545.056 497.426 544.278C497.249 544.172 497.075 544.068 496.905 543.966C495.789 543.298 494.809 542.711 493.876 542.194C492.802 541.6 491.964 541.198 491.291 540.956C490.608 540.711 490.335 540.718 490.335 540.718C489.763 540.748 488.406 541.193 485.698 542.584C484.917 542.986 484 543.479 483.007 544.013C481.152 545.01 479.031 546.15 477.023 547.109C470.814 550.074 462.019 553.235 453.633 548.808C440.424 541.835 410.02 518.539 410.418 468.279C410.817 417.97 441.599 403.068 455.967 403.068C462.979 403.068 469.764 406.749 475.114 409.652C475.259 409.73 475.403 409.808 475.545 409.886L475.555 409.891C478.475 411.473 481.083 412.887 483.614 413.931C486.109 414.96 488.199 415.484 490.017 415.495C495.878 415.337 499.077 413.01 503.337 409.912C503.447 409.832 503.557 409.752 503.668 409.672Z" fill="#05060F"/>
<path d="M521.599 354.652C497.864 365.774 478.759 383.425 485.893 417.369C486.456 420.044 489.201 421.645 491.811 420.833C526.563 410.012 530.95 385.197 528.311 358.491C527.988 355.223 524.572 353.259 521.599 354.652Z" fill="#30B83D"/>
<path fill-rule="evenodd" clip-rule="evenodd" d="M523.371 359.344C524.616 372.261 524.048 383.92 519.556 393.495C515.181 402.822 506.749 410.86 490.703 415.94C487.514 400.347 490.355 388.988 496.301 380.27C502.367 371.375 512.022 364.705 523.371 359.344ZM519.477 350.125C525.609 347.251 532.628 351.334 533.287 357.999C534.635 371.645 534.297 385.618 528.61 397.742C522.797 410.132 511.758 419.859 493.297 425.607C487.891 427.29 482.173 423.976 481 418.398L485.894 417.369L481 418.398C477.187 400.253 480.334 385.934 488.04 374.635C495.614 363.529 507.243 355.858 519.477 350.125Z" fill="#05060F"/>
</svg>
